Coordinates
version=1
nRows=32
nColumns=12
inDegrees=yes

Units are S.I. units (second, meters, Newtons, ...)
Angles are in degrees

endheader
time	SC_y	SC_z	SC_x	AC_y	AC_z	AC_x	GH_y	GH_z	GH_yy	EL_x	PS_y
       0.0              -44.11        -0.2682          26.09          45.47         -2.542          10.95         -1.945         -9.317         -127.7          66.21          133.7
   0.02394              -44.11        -0.2643           26.1          45.47         -2.545          10.95          -1.93          -9.31         -127.7          66.21          133.7
   0.04788              -44.12        -0.2601           26.1          45.48         -2.547          10.95         -1.915         -9.304         -127.7          66.21          133.6
   0.07182              -44.12        -0.2556          26.11          45.48          -2.55          10.95         -1.898         -9.297         -127.7          66.22          133.6
   0.09576              -44.12        -0.2508          26.12          45.48         -2.553          10.95         -1.881         -9.289         -127.7          66.22          133.6
    0.1197              -44.12        -0.2457          26.13          45.49         -2.556          10.95         -1.862         -9.281         -127.6          66.22          133.6
    0.1436              -44.12        -0.2403          26.14          45.49         -2.559          10.95         -1.842         -9.273         -127.6          66.23          133.6
    0.1676              -44.12        -0.2345          26.15          45.49         -2.562          10.95          -1.82         -9.264         -127.6          66.23          133.5
    0.1915              -44.12        -0.2283          26.16           45.5         -2.566          10.95         -1.797         -9.254         -127.5          66.23          133.5
    0.2155              -44.13        -0.2216          26.17           45.5          -2.57          10.95         -1.772         -9.244         -127.5          66.24          133.5
    0.2394              -44.13        -0.2144          26.19          45.51         -2.574          10.95         -1.746         -9.232         -127.5          66.24          133.5
    0.2634              -44.13        -0.2067           26.2          45.51         -2.578          10.95         -1.717          -9.22         -127.4          66.24          133.4
    0.2873              -44.13        -0.1984          26.21          45.52         -2.583          10.95         -1.686         -9.207         -127.4          66.25          133.4
    0.3112              -44.14        -0.1894          26.23          45.52         -2.589          10.96         -1.653         -9.193         -127.3          66.25          133.4
    0.3352              -44.14        -0.1797          26.25          45.53         -2.594          10.96         -1.617         -9.178         -127.3          66.26          133.3
    0.3591              -44.14        -0.1692          26.27          45.54           -2.6          10.96         -1.578         -9.161         -127.2          66.27          133.3
    0.3831              -44.15        -0.1577          26.29          45.54         -2.607          10.96         -1.536         -9.143         -127.2          66.27          133.2
     0.407              -44.15        -0.1452          26.31          45.55         -2.614          10.96         -1.489         -9.124         -127.1          66.28          133.2
    0.4309              -44.15        -0.1316          26.33          45.56         -2.622          10.96         -1.439         -9.102         -127.0          66.29          133.1
    0.4549              -44.16        -0.1167          26.36          45.57         -2.631          10.96         -1.383         -9.079         -127.0          66.29          133.1
    0.4788              -44.16        -0.1003          26.39          45.58         -2.641          10.97         -1.323         -9.053         -126.9           66.3          133.0
    0.5028              -44.17       -0.08226          26.42          45.59         -2.651          10.97         -1.256         -9.025         -126.8          66.31          132.9
    0.5267              -44.18       -0.06234          26.46          45.61         -2.663          10.97         -1.182         -8.994         -126.7          66.33          132.8
    0.5506              -44.18       -0.04028           26.5          45.62         -2.676          10.97           -1.1         -8.959         -126.6          66.34          132.8
    0.5746              -44.19       -0.01575          26.54          45.64          -2.69          10.98         -1.009         -8.921         -126.4          66.35          132.7
    0.5985               -44.2        0.01162          26.59          45.66         -2.706          10.98         -0.908         -8.878         -126.3          66.37          132.6
    0.6225              -44.21        0.04229          26.65          45.68         -2.724          10.98        -0.7944          -8.83         -126.1          66.38          132.4
    0.6464              -44.22        0.07678          26.71           45.7         -2.744          10.99        -0.6666         -8.776         -126.0           66.4          132.3
    0.6703              -44.23         0.1158          26.78          45.72         -2.767          10.99        -0.5222         -8.715         -125.8          66.42          132.1
    0.6943              -44.24           0.16          26.86          45.75         -2.793           11.0        -0.3582         -8.645         -125.5          66.45          132.0
    0.7182              -44.26         0.2105          26.95          45.79         -2.823           11.0         -0.171         -8.566         -125.3          66.48          131.8
    0.7422              -44.28         0.2685          27.05          45.82         -2.857          11.01        0.04381         -8.475         -125.0          66.51          131.5
